<svg width="32" height="24" viewBox="0 0 32 24" fill="none" xmlns="http://www.w3.org/2000/svg">
<g clip-path="url(#clip0_40566_35629)">
<path d="M18.9466 7.21901C19.4253 7.76936 19.6646 8.50537 19.6646 9.42703V13.8163H17.705V9.7346C17.705 8.65191 17.2844 8.11056 16.4433 8.11056C16.1389 8.10343 15.8387 8.18258 15.5775 8.33886C15.3269 8.49566 15.13 8.72503 15.0129 8.99647C14.8769 9.31419 14.8105 9.65738 14.8182 10.0029V13.8148H12.8594V6.56704H14.2021L14.5914 7.46645C14.7253 7.29677 14.8811 7.14555 15.0546 7.01674C15.2324 6.88506 15.4236 6.77258 15.6251 6.68118C15.8337 6.58631 16.052 6.5143 16.2761 6.4664C16.5121 6.41642 16.7528 6.39174 16.9941 6.39276C17.3606 6.37581 17.7263 6.44124 18.0641 6.58422C18.402 6.72721 18.7036 6.94413 18.9466 7.21901Z" fill="#040707"/>
<path d="M27.9601 10.7414H22.4836C22.5347 11.1776 22.7422 11.5805 23.0676 11.8755C23.4018 12.1484 23.8244 12.2892 24.2554 12.2715C24.5692 12.2759 24.8788 12.1999 25.1548 12.0505C25.4172 11.9088 25.6355 11.6975 25.7857 11.4398H27.8528C27.6087 12.1983 27.1273 12.8582 26.4796 13.3222C25.832 13.7863 25.0523 14.03 24.2556 14.0173C23.7563 14.0303 23.2597 13.9392 22.7975 13.7497C22.3353 13.5601 21.9176 13.2764 21.5712 12.9166C21.2185 12.5577 20.9417 12.1315 20.7573 11.6634C20.5728 11.1953 20.4844 10.6948 20.4975 10.1918C20.4958 9.77344 20.5569 9.35717 20.6786 8.95687C20.7927 8.57668 20.9696 8.21826 21.202 7.89643C21.4262 7.58738 21.6954 7.31367 22.0007 7.08441C22.3136 6.85176 22.6628 6.67259 23.0342 6.55419C23.4288 6.42732 23.8411 6.36386 24.2556 6.36616C24.9409 6.35574 25.616 6.53207 26.2086 6.87625C26.7729 7.20282 27.2336 7.68202 27.5376 8.25874C27.8476 8.84588 28.0067 9.50091 28.0006 10.1648C28.0001 10.3577 27.9865 10.5504 27.9601 10.7414ZM23.1488 8.39253C22.8388 8.65061 22.6239 9.00482 22.5381 9.39896H26.0412C25.9639 9.12661 25.8315 8.87304 25.6521 8.65396C25.486 8.45554 25.2773 8.2972 25.0414 8.19075C24.7942 8.08125 24.5263 8.02633 24.2559 8.02972C23.8554 8.01694 23.4632 8.14537 23.1478 8.39253H23.1488Z" fill="#040707"/>
<path d="M8.02671 6C7.2305 6 6.45216 6.23611 5.79014 6.67846C5.12811 7.12082 4.61212 7.74955 4.30742 8.48515C4.00272 9.22076 3.923 10.0302 4.07833 10.8111C4.23367 11.592 4.61708 12.3094 5.18009 12.8724C5.7431 13.4354 6.46041 13.8188 7.24133 13.9741C8.02225 14.1295 8.83169 14.0497 9.5673 13.745C10.3029 13.4403 10.9316 12.9243 11.374 12.2623C11.8163 11.6003 12.0524 10.8219 12.0524 10.0257C12.0524 8.95804 11.6283 7.93409 10.8733 7.17911C10.1184 6.42414 9.0944 6 8.02671 6ZM8.90795 12.4775C8.89322 12.4916 8.8758 12.5025 8.85673 12.5097C8.83767 12.5169 8.81735 12.5201 8.797 12.5192H8.79357C8.70053 12.5192 8.60774 12.5192 8.51495 12.5192H7.76602C7.64329 12.5192 7.59026 12.4657 7.59026 12.3452V11.9318C7.59026 10.8837 7.59026 10.6166 7.59026 9.43906L7.55074 9.45502C7.49388 9.48626 7.43347 9.51057 7.37081 9.52743L7.36345 9.53038C7.32715 9.54754 7.28808 9.5581 7.24808 9.56155C7.21617 9.56842 7.18475 9.57604 7.15308 9.5834C7.09368 9.59764 7.03255 9.61237 6.96873 9.62243H6.96456C6.95376 9.62377 6.94308 9.62598 6.93264 9.62905L6.92013 9.63274H6.90982C6.89656 9.6355 6.88309 9.63706 6.86956 9.6374L6.75026 9.64918L6.67932 9.65606C6.65752 9.65941 6.63525 9.65798 6.61406 9.65188C6.59287 9.64577 6.57326 9.63514 6.55658 9.62071C6.54083 9.60595 6.52848 9.58795 6.52038 9.56794C6.51229 9.54793 6.50864 9.52641 6.5097 9.50485C6.51052 9.16839 6.51052 8.83209 6.5097 8.49596C6.5083 8.4759 6.51109 8.45577 6.51789 8.43685C6.52469 8.41793 6.53536 8.40064 6.54922 8.38607C6.56307 8.3715 6.57981 8.35997 6.59836 8.35222C6.61692 8.34447 6.63688 8.34068 6.65698 8.34107C6.71454 8.33642 6.77147 8.32581 6.82685 8.3094L6.86048 8.30081C6.90941 8.28963 6.95698 8.27316 7.00236 8.25171L7.00776 8.24926L7.17026 8.17758C7.31104 8.12304 7.43327 8.02934 7.52251 7.90756C7.55197 7.86471 7.57228 7.81624 7.58216 7.76519C7.58682 7.72168 7.60835 7.68173 7.64212 7.65392C7.6759 7.62611 7.71924 7.61265 7.76283 7.61644H8.77884C8.82293 7.61197 8.86701 7.62502 8.90157 7.65276C8.91825 7.66907 8.93106 7.68893 8.93905 7.71085C8.94704 7.73277 8.95 7.75621 8.94772 7.77943V9.38285C8.94772 10.1107 8.94772 10.7113 8.94772 11.8287V11.9603C8.94772 12.0951 8.94772 12.2303 8.94969 12.3646C8.95108 12.3853 8.94808 12.406 8.94089 12.4255C8.93369 12.445 8.92247 12.4627 8.90795 12.4775Z" fill="#040707"/>
<path d="M9.4319 19.4378C9.16306 19.2871 8.94154 19.0644 8.79221 18.7949C8.63697 18.5161 8.55725 18.2017 8.56097 17.8827C8.55507 17.647 8.59704 17.4127 8.68432 17.1937C8.7716 16.9747 8.90239 16.7758 9.06878 16.6088C9.23516 16.4419 9.43369 16.3104 9.65234 16.2223C9.87099 16.1343 10.1052 16.0915 10.3409 16.0966C10.7203 16.088 11.0917 16.2062 11.3964 16.4324C11.6925 16.6538 11.9055 16.9684 12.0013 17.3255H11.4693C11.3728 17.1115 11.2153 16.9308 11.0164 16.806C10.8146 16.679 10.5803 16.613 10.3419 16.6161C10.1783 16.612 10.0157 16.6423 9.86454 16.7051C9.71342 16.7678 9.57715 16.8616 9.46455 16.9803C9.3488 17.0998 9.25808 17.2412 9.19772 17.3962C9.13735 17.5512 9.10856 17.7167 9.11303 17.8829C9.11003 18.1072 9.16454 18.3286 9.27137 18.5258C9.37398 18.715 9.52613 18.8726 9.7115 18.9819C9.90226 19.0946 10.1203 19.1527 10.3419 19.1498C10.5789 19.1533 10.8115 19.0861 11.01 18.9566C11.2089 18.825 11.366 18.6394 11.4629 18.4215H12.0076C11.913 18.7849 11.6974 19.1052 11.3964 19.3297C11.0919 19.5567 10.7206 19.6759 10.3409 19.6687C10.0229 19.6727 9.70941 19.5931 9.4319 19.4378Z" fill="#040707"/>
<path d="M16.1043 16.1729V19.593H15.6546L15.5976 19.0736C15.4382 19.2628 15.2378 19.4133 15.0117 19.5137C14.7734 19.6189 14.5154 19.6718 14.2549 19.6689C14.0211 19.6749 13.7885 19.6327 13.5717 19.545C13.3548 19.4573 13.1583 19.3259 12.9944 19.159C12.6689 18.8137 12.4875 18.3571 12.4875 17.8826C12.4875 17.408 12.6689 16.9514 12.9944 16.6061C13.1583 16.4392 13.3548 16.3079 13.5717 16.2202C13.7885 16.1324 14.0211 16.0903 14.2549 16.0963C14.5178 16.0929 14.7782 16.147 15.0181 16.2546C15.244 16.357 15.4442 16.5085 15.604 16.6982L15.6737 16.1724L16.1043 16.1729ZM15.1985 18.7886C15.4265 18.5421 15.5531 18.2187 15.5531 17.8829C15.5531 17.5472 15.4265 17.2238 15.1985 16.9773C14.9558 16.7451 14.6327 16.6158 14.2969 16.6164C13.961 16.617 13.6384 16.7474 13.3965 16.9805C13.1666 17.2248 13.0386 17.5476 13.0386 17.8831C13.0386 18.2185 13.1666 18.5413 13.3965 18.7857C13.6384 19.0187 13.961 19.1492 14.2969 19.1498C14.6327 19.1503 14.9558 19.021 15.1985 18.7889V18.7886Z" fill="#040707"/>
<path d="M19.0494 16.1535V16.6666H18.7011C18.568 16.6588 18.4348 16.68 18.3107 16.7286C18.1866 16.7773 18.0745 16.8523 17.9821 16.9484C17.7996 17.1692 17.7079 17.4511 17.7256 17.7371V19.5928H17.1873V16.1724H17.5672L17.6559 16.6918C17.7762 16.5164 17.9395 16.3747 18.1303 16.2804C18.321 16.1862 18.5328 16.1425 18.7453 16.1535H19.0494Z" fill="#040707"/>
<path d="M22.818 14.9502V19.5926H22.4063L22.3302 19.1048C22.1646 19.2784 21.9663 19.4175 21.7468 19.5141C21.5273 19.6108 21.2908 19.6632 21.051 19.6682C20.8112 19.6732 20.5727 19.6308 20.3493 19.5434C20.1259 19.456 19.922 19.3253 19.7493 19.1588C19.4294 18.8101 19.252 18.3542 19.252 17.881C19.252 17.4078 19.4294 16.9519 19.7493 16.6032C20.0902 16.2779 20.5433 16.0965 21.0145 16.0965C21.4856 16.0965 21.9387 16.2779 22.2796 16.6032V14.9502H22.818ZM21.9566 18.7852C22.1879 18.5412 22.3171 18.2179 22.3177 17.8816C22.3182 17.5454 22.1902 17.2217 21.9598 16.9768C21.8422 16.8579 21.7014 16.7644 21.5461 16.7023C21.3908 16.6402 21.2244 16.6107 21.0572 16.6157C20.8854 16.6146 20.7152 16.648 20.5567 16.7139C20.4078 16.7746 20.2722 16.8639 20.1578 16.9768C20.0447 17.0917 19.9563 17.2286 19.8981 17.3789C19.8344 17.5391 19.8022 17.71 19.8031 17.8824C19.7981 18.0495 19.8269 18.2158 19.8879 18.3715C19.9488 18.5272 20.0406 18.6689 20.1578 18.7881C20.2741 18.907 20.4138 19.0005 20.568 19.0626C20.7223 19.1248 20.8878 19.1543 21.054 19.1492C21.2214 19.1538 21.3879 19.1238 21.5432 19.0612C21.6985 18.9986 21.8392 18.9046 21.9566 18.7852Z" fill="#040707"/>
</g>
<defs>
<clipPath id="clip0_40566_35629">
<rect width="24" height="13.6688" fill="white" transform="translate(4 6)"/>
</clipPath>
</defs>
</svg>
