<svg width="280" height="250" viewBox="0 0 280 250" fill="none" xmlns="http://www.w3.org/2000/svg">
<g clip-path="url(#clip0_3179_38829)">
<path d="M89.6932 0H279.999V125.002H89.6932V0Z" fill="black"/>
<path fill-rule="evenodd" clip-rule="evenodd" d="M131.575 249.999H279.999V125.008H249.999C249.999 159.569 236.003 190.86 213.384 213.509C192.205 234.71 163.469 248.344 131.575 249.999ZM60.0005 249.999H118.414C97.0941 248.89 77.1791 242.433 60.0005 231.937V249.999Z" fill="#F50514"/>
<path fill-rule="evenodd" clip-rule="evenodd" d="M90.0024 125.008H120.003H160.007C160.007 134.693 156.088 143.451 149.756 149.793C143.423 156.134 134.677 160.057 125.004 160.057C115.332 160.057 106.586 156.134 100.253 149.793C93.9127 143.451 90.0024 134.685 90.0024 125.008Z" fill="black"/>
<path d="M60.0011 231.937V250H55.3965L0 249.999V125.008C0 159.569 13.9958 190.861 36.6141 213.51C43.6327 220.538 51.4862 226.73 60.0011 231.937Z" fill="black"/>
<path d="M249.999 125.007C249.999 159.568 236.003 190.859 213.384 213.508C192.205 234.717 163.469 248.343 131.575 249.998H118.414C97.0941 248.889 77.1791 242.432 60.0005 231.935V125.007H90.0011C90.0011 134.692 93.9196 143.45 100.252 149.791C106.584 156.132 115.331 160.056 125.003 160.056C134.675 160.056 143.422 156.132 149.754 149.791C156.087 143.45 160.005 134.692 160.005 125.007H120.002C120.002 115.321 123.92 106.563 130.253 100.222C136.585 93.8809 145.331 89.957 155.004 89.957C164.676 89.957 173.422 93.8809 179.755 100.222C186.087 106.563 190.006 115.321 190.006 125.007H219.634H249.999Z" fill="white"/>
<path fill-rule="evenodd" clip-rule="evenodd" d="M90.0017 18.0829V0.0117188H55.3965H0V125.012C0 159.573 13.9958 190.864 36.6141 213.513C43.6327 220.541 51.478 226.733 60.0011 231.94V125.012H30.0006C30.0006 90.4504 43.9964 59.159 66.6147 36.51C73.6333 29.4736 81.4785 23.2816 90.0017 18.0829Z" fill="#F50514"/>
<path fill-rule="evenodd" clip-rule="evenodd" d="M280 125.012C280 90.4504 266.004 59.159 243.386 36.51C222.206 15.3014 193.47 1.66735 161.568 0.0117188H148.416C127.095 1.12099 107.181 7.57794 89.9937 18.0829V125.012H119.994C119.994 115.326 123.913 106.568 130.245 100.227C136.578 93.8858 145.324 89.962 154.996 89.962C164.669 89.962 173.415 93.8858 179.747 100.227C186.08 106.568 189.998 115.326 189.998 125.012H280Z" fill="#F50514"/>
<path fill-rule="evenodd" clip-rule="evenodd" d="M90.0016 18.082C81.4867 23.289 73.6332 29.481 66.6146 36.5092C43.9963 59.1582 30.0005 90.4495 30.0005 125.011H90.0016V18.082Z" fill="black"/>
</g>
<defs>
<clipPath id="clip0_3179_38829">
<rect width="280" height="250" fill="white"/>
</clipPath>
</defs>
</svg>
