<svg width="739" height="580" viewBox="0 0 739 580" fill="none" xmlns="http://www.w3.org/2000/svg">
<path d="M87.8788 0H0V290H87.8788V0Z" fill="white"/>
<path d="M296.128 0H738.129V290H296.128V0Z" fill="black"/>
<path fill-rule="evenodd" clip-rule="evenodd" d="M393.401 579.998H738.128V290.021H668.449C668.449 370.203 635.943 442.798 583.41 495.343C534.218 544.527 467.477 576.157 393.401 579.998ZM227.163 579.998H362.834C313.316 577.425 267.062 562.445 227.163 538.093V579.998Z" fill="#F50514"/>
<path fill-rule="evenodd" clip-rule="evenodd" d="M296.843 290.021H366.522H459.433C459.433 312.491 450.332 332.81 435.624 347.521C420.917 362.232 400.603 371.336 378.138 371.336C355.673 371.336 335.359 362.232 320.651 347.521C305.925 332.81 296.843 312.472 296.843 290.021Z" fill="black"/>
<path d="M227.164 538.093V579.998H216.469H0V290.021L87.8062 290.021C87.8062 370.203 120.313 442.798 172.845 495.343C189.147 511.648 207.387 526.013 227.164 538.093Z" fill="black"/>
<path d="M668.449 290.023C668.449 370.204 635.943 442.799 583.41 495.344C534.218 544.548 467.477 576.159 393.401 580H362.834C313.316 577.427 267.062 562.447 227.163 538.095V290.023H296.842C296.842 312.493 305.943 332.812 320.651 347.523C335.358 362.234 355.672 371.337 378.137 371.337C400.602 371.337 420.916 362.234 435.623 347.523C450.331 332.812 459.432 312.493 459.432 290.023H366.521C366.521 267.553 375.622 247.234 390.329 232.523C405.037 217.812 425.351 208.709 447.816 208.709C470.281 208.709 490.595 217.812 505.302 232.523C520.01 247.234 529.111 267.553 529.111 290.023H597.926H668.449Z" fill="white"/>
<path fill-rule="evenodd" clip-rule="evenodd" d="M296.84 41.9519V0.0273438H216.467H87.8037V290.023C87.8037 370.204 120.31 442.799 172.843 495.344C189.144 511.65 207.366 526.015 227.161 538.095V290.023H157.482C157.482 209.842 189.989 137.247 242.522 84.7024C258.823 68.3781 277.044 54.0127 296.84 41.9519Z" fill="#F50514"/>
<path fill-rule="evenodd" clip-rule="evenodd" d="M738.129 290.023C738.129 209.842 705.622 137.247 653.09 84.7023C603.898 35.499 537.157 3.86835 463.062 0.0273438H432.514C382.995 2.60082 336.741 17.5807 296.823 41.9519V290.023H366.502C366.502 267.553 375.603 247.235 390.311 232.523C405.018 217.812 425.333 208.709 447.797 208.709C470.262 208.709 490.576 217.812 505.284 232.523C519.991 247.235 529.092 267.553 529.092 290.023H738.129Z" fill="#F50514"/>
<path fill-rule="evenodd" clip-rule="evenodd" d="M296.841 41.9512C277.064 54.0311 258.824 68.3965 242.523 84.7016C189.99 137.247 157.483 209.842 157.483 290.023H296.841V41.9512Z" fill="black"/>
</svg>
